<svg version="1.0" xmlns="http://www.w3.org/2000/svg"
 width="1280.000000pt" height="1225.000000pt" viewBox="0 0 1280.000000 1225.000000"
 preserveAspectRatio="xMidYMid meet">
<g transform="translate(0.000000,1225.000000) scale(0.100000,-0.100000)"
fill="#000000" stroke="none">
<path d="M12380 12240 c-14 -5 -241 -46 -505 -90 -1512 -256 -1507 -255 -1558
-281 -57 -29 -125 -96 -152 -149 -12 -25 -224 -562 -470 -1195 -247 -632 -455
-1157 -464 -1166 -14 -15 -98 -18 -721 -33 -388 -9 -867 -21 -1065 -26 -529
-14 -1080 -28 -1990 -50 -445 -11 -988 -24 -1205 -30 -977 -25 -1253 -32
-1990 -50 -432 -10 -1003 -24 -1270 -30 -635 -15 -714 -20 -784 -54 -91 -45
-153 -125 -192 -249 -15 -50 -16 -66 -6 -115 6 -31 48 -356 92 -722 44 -366
84 -701 90 -745 9 -66 196 -1619 271 -2240 39 -332 48 -387 73 -440 43 -95
127 -169 221 -194 36 -10 531 -50 3430 -281 2192 -174 2769 -220 2855 -226 52
-4 104 -11 115 -17 16 -8 1023 -795 1285 -1004 159 -127 264 -337 245 -488 -7
-63 -43 -141 -81 -179 -35 -35 -114 -73 -180 -86 -31 -6 -1308 -13 -3404 -20
-4996 -15 -4475 -11 -4542 -38 -120 -48 -211 -169 -224 -298 -5 -48 -2 -78 16
-135 19 -64 29 -81 89 -140 58 -58 76 -70 135 -88 63 -19 92 -21 361 -21 162
0 296 -4 299 -9 3 -5 -19 -28 -50 -51 -107 -84 -191 -203 -240 -345 -26 -73
-28 -92 -28 -220 0 -123 3 -149 26 -217 54 -162 154 -294 294 -387 85 -57 155
-85 278 -112 113 -24 133 -24 248 2 358 81 593 362 591 709 -1 245 -88 418
-298 593 -16 14 -26 29 -22 34 10 10 6185 28 6195 18 4 -4 -3 -14 -14 -23 -12
-10 -45 -35 -74 -57 -101 -78 -190 -209 -241 -355 -20 -56 -23 -85 -23 -205 0
-124 3 -149 27 -220 37 -112 90 -197 177 -286 115 -116 229 -176 411 -213 99
-21 121 -20 244 9 238 56 403 184 505 390 57 115 74 190 74 320 0 130 -17 205
-74 320 -87 176 -239 308 -427 369 -29 10 -55 22 -59 27 -3 5 16 18 43 29 265
109 482 320 612 595 47 99 64 188 65 330 0 239 -67 452 -211 670 -110 166
-231 276 -751 684 -255 200 -466 369 -468 376 -3 6 414 1085 926 2396 513
1311 1134 2904 1382 3539 248 635 454 1158 458 1163 3 4 150 32 326 62 175 30
465 79 644 110 179 30 435 74 570 96 135 23 268 50 296 61 100 36 173 122 215
249 24 72 22 106 -10 189 -44 115 -117 184 -238 226 -71 25 -111 28 -153 14z
m-3420 -3455 c0 -18 -489 -1275 -503 -1292 -7 -10 -88 -13 -342 -13 -294 0
-334 2 -339 16 -10 26 -7 1248 4 1264 9 14 112 19 710 33 403 9 470 8 470 -8z
m-1431 -29 c8 -9 10 -186 9 -642 l-3 -629 -620 0 -620 0 -3 622 -2 623 22 5
c13 2 268 11 568 18 300 8 566 15 591 15 29 1 51 -3 58 -12z m-1481 -653 l2
-623 -620 0 -620 0 2 608 3 607 150 7 c206 11 792 25 950 24 l130 -1 3 -622z
m-1483 -18 l0 -600 -620 0 -620 0 -3 579 c-1 384 1 583 8 590 11 11 753 34
1055 32 l180 -1 0 -600z m-1491 559 c14 -14 16 -80 16 -574 0 -307 -3 -565 -6
-574 -6 -14 -70 -16 -625 -16 l-619 0 0 570 0 570 23 4 c12 3 270 10 572 16
303 6 561 13 575 14 14 2 30 4 37 5 6 0 19 -6 27 -15z m-1476 -596 l2 -568
-454 0 c-250 0 -457 4 -460 9 -5 7 -19 120 -76 589 -11 89 -29 237 -40 329
-14 113 -18 169 -11 176 11 11 675 34 941 33 l95 -1 3 -567z m-3 -1393 l0
-580 -360 -2 c-198 -2 -365 1 -372 5 -8 5 -33 177 -68 472 -31 256 -62 510
-69 565 -7 55 -11 106 -8 113 3 10 97 12 441 10 l436 -3 0 -580z m1489 569 c3
-9 6 -267 6 -574 0 -458 -2 -560 -14 -569 -9 -8 -181 -10 -622 -9 l-609 3 -3
570 c-1 314 0 576 3 583 3 9 136 12 619 12 551 0 614 -2 620 -16z m1484 -558
c1 -412 -1 -573 -9 -582 -16 -19 -1208 -21 -1227 -2 -9 9 -12 151 -12 578 0
312 3 570 7 573 3 4 284 6 622 5 l616 -3 3 -569z m1477 -11 l0 -580 -615 0
-615 0 -3 570 c-1 314 0 576 3 583 3 10 132 12 617 10 l613 -3 0 -580z m1493
11 c1 -412 -1 -573 -9 -582 -9 -12 -117 -14 -609 -14 -329 0 -605 3 -614 6
-14 6 -16 66 -16 578 0 315 3 576 7 579 3 4 284 6 622 5 l616 -3 3 -569z m812
557 c0 -20 -427 -1121 -443 -1140 -12 -17 -109 -17 -125 -1 -9 9 -12 149 -12
569 0 307 3 564 6 573 5 14 40 16 290 16 264 0 284 -1 284 -17z m-6752 -1805
l2 -418 -42 0 c-92 0 -564 42 -573 51 -15 15 -104 761 -92 777 7 9 86 12 356
10 l346 -3 3 -417z m1480 410 c15 -15 17 -914 3 -937 -8 -12 -99 -7 -608 33
-329 26 -606 49 -615 52 -17 5 -18 34 -18 428 0 232 3 426 7 429 3 4 279 7
613 7 458 0 609 -3 618 -12z m1476 6 c14 -5 16 -62 16 -534 0 -319 -4 -531 -9
-535 -14 -8 -1191 84 -1218 95 l-23 10 0 473 c0 355 3 476 12 485 9 9 158 12
609 12 329 0 604 -3 613 -6z m1494 -588 c1 -325 -1 -593 -6 -598 -6 -6 -1065
71 -1189 88 l-43 5 0 543 c0 298 3 546 7 549 3 4 281 6 617 5 l611 -3 3 -589z
m1480 582 c9 -9 12 -101 12 -354 l0 -342 -114 -292 c-63 -161 -119 -297 -124
-302 -6 -6 -30 -6 -63 1 -30 7 -251 27 -492 46 -241 19 -443 37 -448 40 -5 4
-9 245 -9 605 0 469 3 599 13 603 6 3 282 6 612 6 455 1 604 -2 613 -11z m276
-6 c2 -4 1 -14 -4 -22 -7 -11 -12 -12 -21 -3 -6 6 -8 16 -5 22 8 13 23 14 30
3z m-6113 -4672 c119 -40 202 -114 257 -229 91 -189 30 -427 -139 -543 -137
-95 -313 -107 -459 -33 -159 81 -261 278 -232 451 28 167 135 297 292 354 76
27 200 27 281 0z m6950 4 c283 -83 401 -420 234 -671 -63 -95 -182 -168 -297
-181 -147 -17 -276 25 -374 122 -226 227 -141 610 160 722 75 28 196 32 277 8z"/>
<path d="M1449 922 c-138 -72 -160 -258 -43 -361 166 -146 415 5 364 220 -10
39 -24 64 -59 99 -73 76 -168 91 -262 42z"/>
<path d="M8425 931 c-104 -48 -155 -158 -125 -271 17 -62 89 -132 155 -149
116 -29 241 38 274 148 54 182 -134 350 -304 272z"/>
</g>
</svg>
